<svg width="64" height="64" viewBox="0 0 64 64" fill="none" xmlns="http://www.w3.org/2000/svg">
<path d="M45.5353 41.8281C44.7984 40.0827 43.729 38.4973 42.3868 37.1602C41.0487 35.8192 39.4635 34.75 37.7189 34.0117C37.7032 34.0039 37.6876 34 37.672 33.9922C40.1056 32.2344 41.6876 29.3711 41.6876 26.1406C41.6876 20.7891 37.3517 16.4531 32.0001 16.4531C26.6485 16.4531 22.3126 20.7891 22.3126 26.1406C22.3126 29.3711 23.8946 32.2344 26.3282 33.9961C26.3126 34.0039 26.297 34.0078 26.2813 34.0156C24.5313 34.7539 22.961 35.8125 21.6134 37.1641C20.2724 38.5022 19.2032 40.0874 18.4649 41.832C17.7396 43.5401 17.3485 45.3713 17.3126 47.2266C17.3116 47.2683 17.3189 47.3097 17.3341 47.3486C17.3493 47.3874 17.3722 47.4228 17.4013 47.4526C17.4304 47.4825 17.4652 47.5062 17.5037 47.5224C17.5421 47.5386 17.5834 47.5469 17.6251 47.5469H19.9688C20.1407 47.5469 20.2774 47.4102 20.2813 47.2422C20.3595 44.2266 21.5704 41.4023 23.711 39.2617C25.9259 37.0469 28.8673 35.8281 32.0001 35.8281C35.1329 35.8281 38.0743 37.0469 40.2892 39.2617C42.4298 41.4023 43.6407 44.2266 43.7189 47.2422C43.7228 47.4141 43.8595 47.5469 44.0314 47.5469H46.3751C46.4168 47.5469 46.4581 47.5386 46.4965 47.5224C46.535 47.5062 46.5698 47.4825 46.5989 47.4526C46.628 47.4228 46.6509 47.3874 46.6661 47.3486C46.6813 47.3097 46.6886 47.2683 46.6876 47.2266C46.6485 45.3594 46.2618 43.543 45.5353 41.8281ZM32.0001 32.8594C30.2071 32.8594 28.5196 32.1602 27.2501 30.8906C25.9806 29.6211 25.2813 27.9336 25.2813 26.1406C25.2813 24.3477 25.9806 22.6602 27.2501 21.3906C28.5196 20.1211 30.2071 19.4219 32.0001 19.4219C33.7931 19.4219 35.4806 20.1211 36.7501 21.3906C38.0196 22.6602 38.7188 24.3477 38.7188 26.1406C38.7188 27.9336 38.0196 29.6211 36.7501 30.8906C35.4806 32.1602 33.7931 32.8594 32.0001 32.8594Z" fill="#1254FF"/>
<circle cx="32" cy="32" r="31.5" stroke="black" stroke-opacity="0.1"/>
<path d="M42.9446 1.92984C35.3241 -0.843806 26.9348 -0.620678 19.4724 2.55411C12.0101 5.7289 6.03154 11.6185 2.74523 19.0324C-0.541076 26.4463 -0.889949 34.8314 1.76914 42.4926C4.42822 50.1539 9.89691 56.5198 17.0697 60.3035L17.5176 59.4544C10.56 55.7842 5.25537 49.6092 2.67606 42.1778C0.0967487 34.7464 0.435155 26.6129 3.62287 19.4214C6.81059 12.23 12.6098 6.51704 19.8483 3.43749C27.0867 0.357941 35.2244 0.141508 42.6163 2.83194L42.9446 1.92984Z" fill="#1254FF"/>
</svg>
