<svg width="64" height="64" viewBox="0 0 64 64" fill="none" xmlns="http://www.w3.org/2000/svg">
<path d="M24.5 26.5734C25.0783 25.9367 26.025 25.3334 27.4167 25.3334C29.3367 25.3334 30.5733 26.6534 31.0083 28.1017C31.43 29.5134 31.175 31.26 29.975 32.465C29.5588 32.8652 29.1173 33.2382 28.6533 33.5817L28.5867 33.6334C28.12 33.9934 27.7033 34.32 27.3367 34.6834C26.9117 35.11 26.5633 35.575 26.3617 36.1667H29.9167C30.2482 36.1667 30.5661 36.2984 30.8005 36.5328C31.035 36.7672 31.1667 37.0852 31.1667 37.4167C31.1667 37.7482 31.035 38.0662 30.8005 38.3006C30.5661 38.535 30.2482 38.6667 29.9167 38.6667H24.9167C24.5851 38.6667 24.2672 38.535 24.0328 38.3006C23.7984 38.0662 23.6667 37.7482 23.6667 37.4167C23.6667 35.3384 24.54 33.945 25.5733 32.915C26.0667 32.4217 26.6033 32.0067 27.0567 31.655L27.0617 31.6517C27.5383 31.2834 27.9083 30.9967 28.2033 30.7017C28.6567 30.245 28.815 29.4934 28.6133 28.8184C28.4217 28.1834 27.9967 27.8334 27.4167 27.8334C26.8283 27.8334 26.525 28.0617 26.35 28.255C26.2476 28.368 26.1643 28.4969 26.1033 28.6367V28.6417C26.0012 28.9573 25.7779 29.2194 25.4826 29.3704C25.1872 29.5214 24.8439 29.5488 24.5283 29.4467C24.2127 29.3446 23.9506 29.1213 23.7996 28.8259C23.6487 28.5306 23.6212 28.1873 23.7233 27.8717L23.7817 27.7117C23.9529 27.2937 24.1954 26.9085 24.4983 26.5734H24.5Z" fill="#FFB21E"/>
<path d="M34.0834 25.3334C34.4149 25.3334 34.7328 25.4651 34.9673 25.6995C35.2017 25.9339 35.3334 26.2519 35.3334 26.5834V31.1667H37.8334V26.5834C37.8334 26.2519 37.9651 25.9339 38.1995 25.6995C38.4339 25.4651 38.7519 25.3334 39.0834 25.3334C39.4149 25.3334 39.7328 25.4651 39.9673 25.6995C40.2017 25.9339 40.3334 26.2519 40.3334 26.5834V37.3667C40.3334 37.6982 40.2017 38.0162 39.9673 38.2506C39.7328 38.485 39.4149 38.6167 39.0834 38.6167C38.7519 38.6167 38.4339 38.485 38.1995 38.2506C37.9651 38.0162 37.8334 37.6982 37.8334 37.3667V33.6667H34.0834C33.7519 33.6667 33.4339 33.535 33.1995 33.3006C32.9651 33.0662 32.8334 32.7482 32.8334 32.4167V26.5834C32.8334 26.2519 32.9651 25.9339 33.1995 25.6995C33.4339 25.4651 33.7519 25.3334 34.0834 25.3334Z" fill="#FFB21E"/>
<path d="M48.6667 32C48.6667 22.795 41.205 15.3334 32 15.3334C22.795 15.3334 15.3334 22.795 15.3334 32C15.3334 41.205 22.795 48.6667 32 48.6667C41.205 48.6667 48.6667 41.205 48.6667 32ZM17.8334 32C17.8334 28.2428 19.3259 24.6395 21.9827 21.9827C24.6395 19.3259 28.2428 17.8334 32 17.8334C35.7573 17.8334 39.3606 19.3259 42.0174 21.9827C44.6742 24.6395 46.1667 28.2428 46.1667 32C46.1667 35.7573 44.6742 39.3606 42.0174 42.0174C39.3606 44.6742 35.7573 46.1667 32 46.1667C28.2428 46.1667 24.6395 44.6742 21.9827 42.0174C19.3259 39.3606 17.8334 35.7573 17.8334 32Z" fill="#FFB21E"/>
<circle cx="32" cy="32" r="31.5" stroke="black" stroke-opacity="0.1"/>
<path d="M1.92984 21.0553C-0.843805 28.6759 -0.62068 37.0652 2.55411 44.5275C5.7289 51.9899 11.6185 57.9685 19.0324 61.2548C26.4463 64.5411 34.8314 64.8899 42.4926 62.2309C50.1538 59.5718 56.5198 54.1031 60.3035 46.9303L59.4544 46.4824C55.7842 53.44 49.6092 58.7446 42.1778 61.3239C34.7464 63.9033 26.6129 63.5648 19.4214 60.3771C12.23 57.1894 6.51703 51.3902 3.43748 44.1517C0.357939 36.9133 0.141509 28.7756 2.83194 21.3837L1.92984 21.0553Z" fill="#FFB21E"/>
</svg>
