<svg width="64" height="64" viewBox="0 0 64 64" fill="none" xmlns="http://www.w3.org/2000/svg">
<path d="M30.3333 33.6667V27C30.3333 26.0833 29.5833 25.3333 28.6666 25.3333H22V22H28.6666C29.5833 22 30.3333 21.25 30.3333 20.3333C30.3333 19.4167 29.5833 18.6667 28.6666 18.6667H26.1666C26.1666 17.75 25.4166 17 24.5 17C23.5833 17 22.8333 17.75 22.8333 18.6667H20.3333C19.4166 18.6667 18.6666 19.4167 18.6666 20.3333V27C18.6666 27.9167 19.4166 28.6667 20.3333 28.6667H27V32H20.3333C19.4166 32 18.6666 32.75 18.6666 33.6667C18.6666 34.5833 19.4166 35.3333 20.3333 35.3333H22.8333C22.8333 36.25 23.5833 37 24.5 37C25.4166 37 26.1666 36.25 26.1666 35.3333H28.6666C29.5833 35.3333 30.3333 34.5833 30.3333 33.6667ZM43.4666 34.0333L35.2166 42.2833L31.6833 38.75C31.3717 38.4384 30.949 38.2633 30.5083 38.2633C30.0676 38.2633 29.6449 38.4384 29.3333 38.75C29.0217 39.0616 28.8466 39.4843 28.8466 39.925C28.8466 40.3657 29.0217 40.7884 29.3333 41.1L34.05 45.8167C34.7 46.4667 35.75 46.4667 36.4 45.8167L45.8333 36.3833C45.9878 36.2291 46.1104 36.046 46.194 35.8444C46.2776 35.6428 46.3207 35.4266 46.3207 35.2083C46.3207 34.9901 46.2776 34.7739 46.194 34.5723C46.1104 34.3707 45.9878 34.1875 45.8333 34.0333C45.1666 33.3833 44.1166 33.3833 43.4666 34.0333Z" fill="#FFB21E"/>
<circle cx="32" cy="32" r="31.5" stroke="black" stroke-opacity="0.1"/>
<path d="M64 32C64 38.4438 62.0546 44.7374 58.4185 50.0573C54.7823 55.3771 49.6248 59.4753 43.6209 61.8153C37.6171 64.1554 31.0466 64.6284 24.7695 63.1724C18.4923 61.7164 12.801 58.3993 8.44036 53.6551L9.14715 53.0054C13.377 57.6073 18.8976 60.8249 24.9864 62.2372C31.0752 63.6496 37.4486 63.1908 43.2723 60.9209C49.096 58.651 54.0988 54.6758 57.6259 49.5156C61.153 44.3553 63.04 38.2505 63.04 32H64Z" fill="#FFB21E"/>
</svg>
