<svg width="64" height="64" viewBox="0 0 64 64" fill="none" xmlns="http://www.w3.org/2000/svg">
<path d="M40.3166 20.3334L41.3666 22.6167L43.65 23.6667L41.3666 24.7167L40.3166 27L39.2666 24.7167L36.9833 23.6667L39.2666 22.6167L40.3166 20.3334ZM45.3333 35.3334C47.1666 35.3334 48.6666 33.8334 48.6666 32C48.6666 30.1667 45.3333 25.3334 45.3333 25.3334C45.3333 25.3334 42 30.1667 42 32C42 33.8334 43.5 35.3334 45.3333 35.3334ZM30.3333 22.1667V18.6667H33.6666C34.6166 18.6667 35.5 18.95 36.25 19.4167L38.6333 17.0334C37.21 15.9354 35.4642 15.3379 33.6666 15.3334H24.5V18.6667H27V22.1834C24.0333 22.8 21.6666 24.9834 20.75 27.8334H24.35C25.2333 26.35 26.8166 25.3334 28.6666 25.3334C31.3666 25.3334 33.5666 27.4834 33.65 30.1667L37 31.4167V30.3334C37.0004 28.4123 36.337 26.5501 35.1221 25.0619C33.9073 23.5737 32.2156 22.5509 30.3333 22.1667ZM48.6666 43.6667V45.3334L35.3333 49.5L23.6666 46.2667V48.6667H13.6666V30.3334H26.95L37.2166 34.1667C38.1315 34.5118 38.9196 35.1271 39.4763 35.9309C40.033 36.7347 40.3319 37.6889 40.3333 38.6667H43.6666C46.4333 38.6667 48.6666 40.9 48.6666 43.6667ZM20.3333 45.3334V33.6667H17V45.3334H20.3333ZM45.1666 42.95C44.9 42.4 44.3166 42.0167 43.6666 42.0167H34.75C33.85 42.0167 32.9666 41.8667 32.1166 41.5834L28.15 40.2667L29.2 37.1L33.1666 38.4167C33.6833 38.5834 37 38.6667 37 38.6667C37 38.05 36.6166 37.5 36.05 37.2834L26.35 33.6667H23.6666V42.8L35.2833 46.0167L45.1666 42.95Z" fill="#1254FF"/>
<circle cx="32" cy="32" r="31.5" stroke="black" stroke-opacity="0.1"/>
<path d="M59.7128 16C55.658 8.9769 49.088 3.75524 41.3308 1.39058C33.5736 -0.974068 25.208 -0.305319 17.925 3.26164C10.6419 6.82861 4.98487 13.0277 2.09729 20.6058C-0.790281 28.1839 -0.692949 36.5756 2.36961 44.0847L3.25852 43.7222C0.287838 36.4384 0.193427 28.2983 2.99437 20.9476C5.79532 13.5969 11.2827 7.58375 18.3472 4.12379C25.4117 0.66384 33.5264 0.0151534 41.0509 2.30887C48.5753 4.60258 54.9483 9.66759 58.8814 16.48L59.7128 16Z" fill="#1254FF"/>
</svg>
